<mxfile host="app.diagrams.net" modified="2022-04-10T22:03:30.393Z" agent="5.0 (Windows NT 10.0; Win64; x64) AppleWebKit/537.36 (KHTML, like Gecko) Chrome/100.0.4896.75 Safari/537.36" etag="iFIuVx42YKRXeJtXfW6b" version="17.1.3" type="github">
  <diagram id="WOGG79sN5us9k257uMXT" name="Page-1">
    <mxGraphModel dx="2310" dy="744" grid="1" gridSize="10" guides="1" tooltips="1" connect="1" arrows="1" fold="1" page="1" pageScale="1" pageWidth="827" pageHeight="1169" math="0" shadow="0">
      <root>
        <mxCell id="0" />
        <mxCell id="1" parent="0" />
        <mxCell id="Cakd-rP3lqvm927wXg6r-2" value="" style="rounded=0;whiteSpace=wrap;html=1;fillColor=none;strokeColor=#82b366;dashed=1;" vertex="1" parent="1">
          <mxGeometry x="-40" y="80" width="680" height="430" as="geometry" />
        </mxCell>
        <mxCell id="4ECodcGFSFOLGPlk0z5e-46" value="" style="rounded=0;whiteSpace=wrap;html=1;fillColor=none;strokeColor=#d6b656;dashed=1;" parent="1" vertex="1">
          <mxGeometry x="640" y="160" width="400" height="280" as="geometry" />
        </mxCell>
        <mxCell id="4ECodcGFSFOLGPlk0z5e-14" style="edgeStyle=orthogonalEdgeStyle;rounded=0;orthogonalLoop=1;jettySize=auto;html=1;exitX=1;exitY=1;exitDx=0;exitDy=0;" parent="1" source="4ECodcGFSFOLGPlk0z5e-2" target="4ECodcGFSFOLGPlk0z5e-13" edge="1">
          <mxGeometry relative="1" as="geometry">
            <Array as="points">
              <mxPoint x="240" y="274" />
              <mxPoint x="240" y="300" />
              <mxPoint x="325" y="300" />
            </Array>
          </mxGeometry>
        </mxCell>
        <mxCell id="4ECodcGFSFOLGPlk0z5e-21" style="edgeStyle=orthogonalEdgeStyle;rounded=0;orthogonalLoop=1;jettySize=auto;html=1;exitX=0.637;exitY=-0.01;exitDx=0;exitDy=0;exitPerimeter=0;" parent="1" source="4ECodcGFSFOLGPlk0z5e-2" target="4ECodcGFSFOLGPlk0z5e-19" edge="1">
          <mxGeometry relative="1" as="geometry">
            <Array as="points">
              <mxPoint x="240" y="240" />
              <mxPoint x="240" y="220" />
              <mxPoint x="325" y="220" />
            </Array>
          </mxGeometry>
        </mxCell>
        <mxCell id="4ECodcGFSFOLGPlk0z5e-26" style="edgeStyle=orthogonalEdgeStyle;rounded=0;orthogonalLoop=1;jettySize=auto;html=1;exitX=0.5;exitY=0;exitDx=0;exitDy=0;entryX=0.5;entryY=1;entryDx=0;entryDy=0;" parent="1" source="4ECodcGFSFOLGPlk0z5e-2" target="4ECodcGFSFOLGPlk0z5e-25" edge="1">
          <mxGeometry relative="1" as="geometry">
            <Array as="points">
              <mxPoint x="240" y="240" />
              <mxPoint x="240" y="220" />
              <mxPoint x="460" y="220" />
            </Array>
          </mxGeometry>
        </mxCell>
        <mxCell id="4ECodcGFSFOLGPlk0z5e-30" style="edgeStyle=orthogonalEdgeStyle;rounded=0;orthogonalLoop=1;jettySize=auto;html=1;exitX=1;exitY=0.5;exitDx=0;exitDy=0;entryX=0;entryY=0.5;entryDx=0;entryDy=0;" parent="1" source="4ECodcGFSFOLGPlk0z5e-2" target="4ECodcGFSFOLGPlk0z5e-29" edge="1">
          <mxGeometry relative="1" as="geometry" />
        </mxCell>
        <mxCell id="Cakd-rP3lqvm927wXg6r-8" style="edgeStyle=orthogonalEdgeStyle;rounded=0;orthogonalLoop=1;jettySize=auto;html=1;exitX=1;exitY=1;exitDx=0;exitDy=0;" edge="1" parent="1" source="4ECodcGFSFOLGPlk0z5e-2" target="Cakd-rP3lqvm927wXg6r-7">
          <mxGeometry relative="1" as="geometry">
            <Array as="points">
              <mxPoint x="240" y="274" />
              <mxPoint x="240" y="300" />
              <mxPoint x="470" y="300" />
            </Array>
          </mxGeometry>
        </mxCell>
        <mxCell id="4ECodcGFSFOLGPlk0z5e-2" value="&lt;div&gt;dron_control_node&lt;/div&gt;" style="ellipse;whiteSpace=wrap;html=1;fillColor=#dae8fc;strokeColor=#6c8ebf;" parent="1" vertex="1">
          <mxGeometry x="160" y="240" width="120" height="40" as="geometry" />
        </mxCell>
        <mxCell id="4ECodcGFSFOLGPlk0z5e-11" style="edgeStyle=orthogonalEdgeStyle;rounded=0;orthogonalLoop=1;jettySize=auto;html=1;exitX=0;exitY=0.5;exitDx=0;exitDy=0;entryX=0;entryY=0.5;entryDx=0;entryDy=0;" parent="1" source="4ECodcGFSFOLGPlk0z5e-3" target="4ECodcGFSFOLGPlk0z5e-6" edge="1">
          <mxGeometry relative="1" as="geometry" />
        </mxCell>
        <mxCell id="4ECodcGFSFOLGPlk0z5e-12" style="edgeStyle=orthogonalEdgeStyle;rounded=0;orthogonalLoop=1;jettySize=auto;html=1;exitX=0;exitY=0.5;exitDx=0;exitDy=0;entryX=0;entryY=0.5;entryDx=0;entryDy=0;" parent="1" source="4ECodcGFSFOLGPlk0z5e-3" target="4ECodcGFSFOLGPlk0z5e-8" edge="1">
          <mxGeometry relative="1" as="geometry" />
        </mxCell>
        <mxCell id="4ECodcGFSFOLGPlk0z5e-3" value="&lt;div&gt;Mavros&lt;/div&gt;" style="ellipse;whiteSpace=wrap;html=1;fillColor=#dae8fc;strokeColor=#6c8ebf;" parent="1" vertex="1">
          <mxGeometry x="170" y="440" width="120" height="40" as="geometry" />
        </mxCell>
        <mxCell id="4ECodcGFSFOLGPlk0z5e-41" style="edgeStyle=orthogonalEdgeStyle;rounded=0;orthogonalLoop=1;jettySize=auto;html=1;exitX=0;exitY=0.5;exitDx=0;exitDy=0;entryX=1;entryY=0.5;entryDx=0;entryDy=0;" parent="1" source="4ECodcGFSFOLGPlk0z5e-4" target="4ECodcGFSFOLGPlk0z5e-31" edge="1">
          <mxGeometry relative="1" as="geometry" />
        </mxCell>
        <mxCell id="4ECodcGFSFOLGPlk0z5e-4" value="&lt;div&gt;dron_control_node&lt;/div&gt;" style="ellipse;whiteSpace=wrap;html=1;fillColor=#fff2cc;strokeColor=#d6b656;" parent="1" vertex="1">
          <mxGeometry x="840" y="240" width="120" height="40" as="geometry" />
        </mxCell>
        <mxCell id="4ECodcGFSFOLGPlk0z5e-9" style="edgeStyle=orthogonalEdgeStyle;rounded=0;orthogonalLoop=1;jettySize=auto;html=1;exitX=1;exitY=0.5;exitDx=0;exitDy=0;entryX=0.5;entryY=1;entryDx=0;entryDy=0;" parent="1" source="4ECodcGFSFOLGPlk0z5e-6" target="4ECodcGFSFOLGPlk0z5e-2" edge="1">
          <mxGeometry relative="1" as="geometry" />
        </mxCell>
        <mxCell id="4ECodcGFSFOLGPlk0z5e-6" value="PoseStamped&lt;br&gt;/mavros/local_position/pose" style="rounded=0;whiteSpace=wrap;html=1;" parent="1" vertex="1">
          <mxGeometry y="320" width="170" height="40" as="geometry" />
        </mxCell>
        <mxCell id="4ECodcGFSFOLGPlk0z5e-10" style="edgeStyle=orthogonalEdgeStyle;rounded=0;orthogonalLoop=1;jettySize=auto;html=1;exitX=1;exitY=0.5;exitDx=0;exitDy=0;" parent="1" source="4ECodcGFSFOLGPlk0z5e-8" edge="1">
          <mxGeometry relative="1" as="geometry">
            <mxPoint x="220" y="280" as="targetPoint" />
          </mxGeometry>
        </mxCell>
        <mxCell id="4ECodcGFSFOLGPlk0z5e-8" value="mavros_msgs.msg--State&lt;br&gt;/mavros/state" style="rounded=0;whiteSpace=wrap;html=1;" parent="1" vertex="1">
          <mxGeometry y="370" width="170" height="40" as="geometry" />
        </mxCell>
        <mxCell id="4ECodcGFSFOLGPlk0z5e-15" style="edgeStyle=orthogonalEdgeStyle;rounded=0;orthogonalLoop=1;jettySize=auto;html=1;exitX=0.5;exitY=1;exitDx=0;exitDy=0;" parent="1" source="4ECodcGFSFOLGPlk0z5e-13" target="4ECodcGFSFOLGPlk0z5e-3" edge="1">
          <mxGeometry relative="1" as="geometry" />
        </mxCell>
        <mxCell id="4ECodcGFSFOLGPlk0z5e-13" value="PoseStamped&lt;br&gt;/mavros/setpoint_position/local" style="rounded=0;whiteSpace=wrap;html=1;" parent="1" vertex="1">
          <mxGeometry x="240" y="340" width="170" height="40" as="geometry" />
        </mxCell>
        <mxCell id="4ECodcGFSFOLGPlk0z5e-23" style="edgeStyle=orthogonalEdgeStyle;rounded=0;orthogonalLoop=1;jettySize=auto;html=1;exitX=0.5;exitY=1;exitDx=0;exitDy=0;" parent="1" source="4ECodcGFSFOLGPlk0z5e-16" target="4ECodcGFSFOLGPlk0z5e-20" edge="1">
          <mxGeometry relative="1" as="geometry" />
        </mxCell>
        <mxCell id="4ECodcGFSFOLGPlk0z5e-16" value="" style="ellipse;whiteSpace=wrap;html=1;" parent="1" vertex="1">
          <mxGeometry x="120" y="80" width="150" height="40" as="geometry" />
        </mxCell>
        <mxCell id="4ECodcGFSFOLGPlk0z5e-17" value="" style="ellipse;whiteSpace=wrap;html=1;" parent="1" vertex="1">
          <mxGeometry x="135" y="80" width="150" height="40" as="geometry" />
        </mxCell>
        <mxCell id="4ECodcGFSFOLGPlk0z5e-44" style="edgeStyle=orthogonalEdgeStyle;rounded=0;orthogonalLoop=1;jettySize=auto;html=1;exitX=1;exitY=0.5;exitDx=0;exitDy=0;entryX=0;entryY=0.5;entryDx=0;entryDy=0;" parent="1" source="4ECodcGFSFOLGPlk0z5e-18" target="4ECodcGFSFOLGPlk0z5e-43" edge="1">
          <mxGeometry relative="1" as="geometry">
            <Array as="points">
              <mxPoint x="540" y="100" />
              <mxPoint x="540" y="220" />
            </Array>
          </mxGeometry>
        </mxCell>
        <mxCell id="4ECodcGFSFOLGPlk0z5e-18" value="&lt;div&gt;vision_nagvation&amp;nbsp;_nodes&lt;/div&gt;" style="ellipse;whiteSpace=wrap;html=1;fillColor=#dae8fc;strokeColor=#6c8ebf;" parent="1" vertex="1">
          <mxGeometry x="155" y="80" width="150" height="40" as="geometry" />
        </mxCell>
        <mxCell id="4ECodcGFSFOLGPlk0z5e-22" style="edgeStyle=orthogonalEdgeStyle;rounded=0;orthogonalLoop=1;jettySize=auto;html=1;exitX=0.5;exitY=0;exitDx=0;exitDy=0;" parent="1" source="4ECodcGFSFOLGPlk0z5e-19" target="4ECodcGFSFOLGPlk0z5e-18" edge="1">
          <mxGeometry relative="1" as="geometry" />
        </mxCell>
        <mxCell id="4ECodcGFSFOLGPlk0z5e-19" value="PoseStamped&lt;br&gt;/drone/nagvation/pos" style="rounded=0;whiteSpace=wrap;html=1;" parent="1" vertex="1">
          <mxGeometry x="240" y="160" width="120" height="40" as="geometry" />
        </mxCell>
        <mxCell id="4ECodcGFSFOLGPlk0z5e-24" style="edgeStyle=orthogonalEdgeStyle;rounded=0;orthogonalLoop=1;jettySize=auto;html=1;exitX=0.5;exitY=1;exitDx=0;exitDy=0;entryX=0.5;entryY=0;entryDx=0;entryDy=0;" parent="1" source="4ECodcGFSFOLGPlk0z5e-20" target="4ECodcGFSFOLGPlk0z5e-2" edge="1">
          <mxGeometry relative="1" as="geometry">
            <Array as="points">
              <mxPoint x="115" y="220" />
              <mxPoint x="220" y="220" />
            </Array>
          </mxGeometry>
        </mxCell>
        <mxCell id="4ECodcGFSFOLGPlk0z5e-20" value="PoseStamped&lt;br&gt;/drone/input_postion/pose" style="rounded=0;whiteSpace=wrap;html=1;" parent="1" vertex="1">
          <mxGeometry x="40" y="160" width="160" height="40" as="geometry" />
        </mxCell>
        <mxCell id="4ECodcGFSFOLGPlk0z5e-28" style="edgeStyle=orthogonalEdgeStyle;rounded=0;orthogonalLoop=1;jettySize=auto;html=1;exitX=0.5;exitY=0;exitDx=0;exitDy=0;entryX=0.5;entryY=1;entryDx=0;entryDy=0;" parent="1" source="4ECodcGFSFOLGPlk0z5e-25" target="4ECodcGFSFOLGPlk0z5e-18" edge="1">
          <mxGeometry relative="1" as="geometry" />
        </mxCell>
        <mxCell id="4ECodcGFSFOLGPlk0z5e-25" value="BoolStamped&lt;br&gt;/auto_mode/status" style="rounded=0;whiteSpace=wrap;html=1;" parent="1" vertex="1">
          <mxGeometry x="400" y="160" width="120" height="40" as="geometry" />
        </mxCell>
        <mxCell id="4ECodcGFSFOLGPlk0z5e-42" style="edgeStyle=orthogonalEdgeStyle;rounded=0;orthogonalLoop=1;jettySize=auto;html=1;exitX=1;exitY=0.5;exitDx=0;exitDy=0;" parent="1" source="4ECodcGFSFOLGPlk0z5e-29" edge="1">
          <mxGeometry relative="1" as="geometry">
            <mxPoint x="810" y="220" as="targetPoint" />
            <Array as="points">
              <mxPoint x="760" y="260" />
              <mxPoint x="760" y="220" />
            </Array>
          </mxGeometry>
        </mxCell>
        <mxCell id="4ECodcGFSFOLGPlk0z5e-29" value="GetDroneState&lt;br&gt;/drone/current/control_status" style="rounded=0;whiteSpace=wrap;html=1;fillColor=#fff2cc;strokeColor=#d6b656;" parent="1" vertex="1">
          <mxGeometry x="560" y="240" width="170" height="40" as="geometry" />
        </mxCell>
        <mxCell id="4ECodcGFSFOLGPlk0z5e-36" style="edgeStyle=orthogonalEdgeStyle;rounded=0;orthogonalLoop=1;jettySize=auto;html=1;exitX=0;exitY=0.5;exitDx=0;exitDy=0;entryX=0.918;entryY=0.745;entryDx=0;entryDy=0;entryPerimeter=0;" parent="1" source="4ECodcGFSFOLGPlk0z5e-31" edge="1" target="4ECodcGFSFOLGPlk0z5e-2">
          <mxGeometry relative="1" as="geometry">
            <mxPoint x="430" y="280" as="targetPoint" />
            <Array as="points">
              <mxPoint x="520" y="300" />
              <mxPoint x="520" y="280" />
              <mxPoint x="270" y="280" />
            </Array>
          </mxGeometry>
        </mxCell>
        <mxCell id="4ECodcGFSFOLGPlk0z5e-31" value="SetDroneState&lt;br&gt;/drone/set/control_status" style="rounded=0;whiteSpace=wrap;html=1;fillColor=#fff2cc;strokeColor=#d6b656;" parent="1" vertex="1">
          <mxGeometry x="560" y="280" width="170" height="40" as="geometry" />
        </mxCell>
        <mxCell id="4ECodcGFSFOLGPlk0z5e-45" style="edgeStyle=orthogonalEdgeStyle;rounded=0;orthogonalLoop=1;jettySize=auto;html=1;exitX=1;exitY=0.5;exitDx=0;exitDy=0;entryX=0.5;entryY=0;entryDx=0;entryDy=0;" parent="1" source="4ECodcGFSFOLGPlk0z5e-43" target="4ECodcGFSFOLGPlk0z5e-4" edge="1">
          <mxGeometry relative="1" as="geometry" />
        </mxCell>
        <mxCell id="4ECodcGFSFOLGPlk0z5e-43" value="Image&lt;br&gt;/detection_result/image" style="rounded=0;whiteSpace=wrap;html=1;" parent="1" vertex="1">
          <mxGeometry x="560" y="200" width="170" height="40" as="geometry" />
        </mxCell>
        <mxCell id="4ECodcGFSFOLGPlk0z5e-47" value="Ground Station" style="text;html=1;strokeColor=none;fillColor=none;align=center;verticalAlign=middle;whiteSpace=wrap;rounded=0;dashed=1;fontStyle=1" parent="1" vertex="1">
          <mxGeometry x="640" y="130" width="110" height="30" as="geometry" />
        </mxCell>
        <mxCell id="Cakd-rP3lqvm927wXg6r-3" value="Onboard Computer" style="text;html=1;strokeColor=none;fillColor=none;align=center;verticalAlign=middle;whiteSpace=wrap;rounded=0;dashed=1;fontStyle=1" vertex="1" parent="1">
          <mxGeometry x="-40" y="40" width="110" height="30" as="geometry" />
        </mxCell>
        <mxCell id="Cakd-rP3lqvm927wXg6r-4" value="&lt;div&gt;servo_node&lt;/div&gt;" style="ellipse;whiteSpace=wrap;html=1;fillColor=#dae8fc;strokeColor=#6c8ebf;" vertex="1" parent="1">
          <mxGeometry x="410" y="440" width="120" height="40" as="geometry" />
        </mxCell>
        <mxCell id="Cakd-rP3lqvm927wXg6r-9" style="edgeStyle=orthogonalEdgeStyle;rounded=0;orthogonalLoop=1;jettySize=auto;html=1;exitX=0.5;exitY=1;exitDx=0;exitDy=0;entryX=0.5;entryY=0;entryDx=0;entryDy=0;" edge="1" parent="1" source="Cakd-rP3lqvm927wXg6r-7" target="Cakd-rP3lqvm927wXg6r-4">
          <mxGeometry relative="1" as="geometry" />
        </mxCell>
        <mxCell id="Cakd-rP3lqvm927wXg6r-7" value="AllServoAngle&lt;br&gt;/servo/angle" style="rounded=0;whiteSpace=wrap;html=1;" vertex="1" parent="1">
          <mxGeometry x="420" y="340" width="100" height="40" as="geometry" />
        </mxCell>
      </root>
    </mxGraphModel>
  </diagram>
</mxfile>
